<svg xmlns="http://www.w3.org/2000/svg" xmlns:xlink="http://www.w3.org/1999/xlink" id="Component_3_1" data-name="Component 3 &#x2013; 1" width="871.485" height="213.375" viewBox="0 0 871.485 213.375"><defs><linearGradient id="linear-gradient" x1="0.887" y1="0.092" x2="0.119" y2="0.891" gradientUnits="objectBoundingBox"><stop offset="0" stop-color="#3c409a"></stop><stop offset="0.493" stop-color="#564399"></stop><stop offset="1" stop-color="#d12064"></stop></linearGradient></defs><g id="Component_1_5" data-name="Component 1 &#x2013; 5"><path id="Subtraction_1" data-name="Subtraction 1" d="M106.942,213.589c-4.21-.037-8.437-.144-12.566-.318a12.926,12.926,0,0,1,25.135.015C115.4,213.45,111.173,213.551,106.942,213.589Zm16.868-.5v0h0a16.89,16.89,0,0,0-33.737-.024c-20.676-1.117-37.61-3.846-47.683-7.683-.684-.265-1.371-.548-2.042-.841v-8.5a12.924,12.924,0,0,1,12.926-12.926H160.609a12.926,12.926,0,0,1,12.926,12.926v8.5c-.676.295-1.363.578-2.043.841-1.757.7-3.749,1.364-5.92,1.982v-8.341a7.954,7.954,0,0,0-7.944-7.945H145.7a1.982,1.982,0,0,0,0,3.964h11.926a3.986,3.986,0,0,1,3.982,3.982v8.944a1.988,1.988,0,0,0,.044.416C151.951,210.69,138.865,212.318,123.81,213.091ZM36.385,202.614h0a55.649,55.649,0,0,1-15.184-12.1,67.7,67.7,0,0,1-9.361-13.677,68.927,68.927,0,0,1-6.049-15.82A187.227,187.227,0,0,1,1.077,133.29a241.346,241.346,0,0,1-1.053-26.4A233.422,233.422,0,0,1,1.16,80.579,211.835,211.835,0,0,1,5.791,52.768a70.208,70.208,0,0,1,7.154-17.857A64.981,64.981,0,0,1,24.132,20.2,54.138,54.138,0,0,1,42.391,8.4C48.83,5.848,57.983,3.834,69.6,2.416A338.668,338.668,0,0,1,105.052.22l-.092,46.748,0,1H71.163A16.89,16.89,0,0,0,54.274,64.855V84.7l-.39.3a25.358,25.358,0,0,0,0,40.157l.39.3V154.3a16.89,16.89,0,0,0,16.889,16.889h3.982v7.962H53.275a16.891,16.891,0,0,0-16.889,16.889v6.574Zm141.112,0v-6.574a16.89,16.89,0,0,0-16.889-16.889H138.738v-7.962h3.982A16.89,16.89,0,0,0,159.608,154.3V125.514l.39-.3a25.356,25.356,0,0,0,0-40.157l-.39-.3v-19.9a16.89,16.89,0,0,0-16.889-16.889h-33.8l0-1L108.814.214a331.16,331.16,0,0,1,35.522,2.263C155.958,3.917,165.169,5.91,171.713,8.4a54.14,54.14,0,0,1,18.259,11.8,64.983,64.983,0,0,1,11.188,14.71,70.221,70.221,0,0,1,7.154,17.857,221.667,221.667,0,0,1,5.545,54.125,233.443,233.443,0,0,1-1.136,26.314,211.726,211.726,0,0,1-4.631,27.811,68.908,68.908,0,0,1-6.049,15.821,67.7,67.7,0,0,1-9.361,13.677,55.649,55.649,0,0,1-15.184,12.1Zm-42.722-23.463H79.108v-7.962h55.667v7.961Zm7.944-11.926H71.163A12.926,12.926,0,0,1,58.237,154.3V123.037h29.87l.28.238,17.266,14.642a1.989,1.989,0,0,0,1.289.475h.005a1.981,1.981,0,0,0,1.262-.454l17.054-14.222.278-.232h30.1V154.3a12.926,12.926,0,0,1-12.926,12.926Zm-35.785-33.413h0l-.64-.545L90.14,119.527a1.992,1.992,0,0,0-1.262-.453H58.237V64.855A12.926,12.926,0,0,1,71.163,51.929h71.556a12.926,12.926,0,0,1,12.926,12.926v54.667h-30.85a1.986,1.986,0,0,0-1.263.454l-15.951,13.3-.646.539Zm23.859-35.161a4.963,4.963,0,1,0,4.963,4.963A4.969,4.969,0,0,0,130.793,98.651Zm-47.7,0a4.963,4.963,0,1,0,4.963,4.963A4.969,4.969,0,0,0,83.089,98.651Zm76.519,21.874V89.684L161.4,92a21.427,21.427,0,0,1,0,26.208l-1.79,2.314Zm-105.333,0,0,0-1.789-2.314a21.425,21.425,0,0,1,0-26.208l1.791-2.317v30.841Z" transform="translate(0 -0.214)" fill="url(#linear-gradient)"></path></g><path id="noun_code_801638" d="M31.121,9.077s-.965-4.607-5.136-6.225A30.4,30.4,0,0,0,16.927,1.7c-3.548.031-7.128.374-9.089,1.152C3.667,4.47,2.7,9.077,2.7,9.077a31.429,31.429,0,0,0-.809,7.595A29.8,29.8,0,0,0,2.7,24.267s.965,4.607,5.136,6.225A30.4,30.4,0,0,0,16.9,31.644c3.517-.031,7.1-.374,9.058-1.152,4.171-1.619,5.136-6.225,5.136-6.225a31.429,31.429,0,0,0,.809-7.595A31.333,31.333,0,0,0,31.121,9.077Z" transform="translate(706.554 121.651)" fill="#3c409a"></path><path id="Path_36" data-name="Path 36" d="M84-1.4Q52.78,1.4,32.2,1.4q-13.72,0-20.16-6.44T5.6-25.2V-70q0-14.7,6.65-21.35T33.6-98H84v19.6H39.2q-8.4,0-8.4,8.4v44.8a6.9,6.9,0,0,0,1.89,5.11,6.541,6.541,0,0,0,4.83,1.89q2.94,0,6.44-.07t7.28-.21l7.63-.28q3.85-.14,9.94-.56T84-20.3Zm44.1-17.5a59.465,59.465,0,0,0,16.8-2.8V-74.2h24.5V0H147.7l-1.4-7A50.084,50.084,0,0,1,132.79-.63,42.949,42.949,0,0,1,121.1,1.4h-6.3q-9.52,0-15.26-5.74T93.8-19.6V-74.2h24.5v50.4a4.749,4.749,0,0,0,1.4,3.5,4.749,4.749,0,0,0,3.5,1.4Zm105-32.9a4.749,4.749,0,0,0-1.4-3.5,4.749,4.749,0,0,0-3.5-1.4h-3.5a79.357,79.357,0,0,0-10.15.56q-4.27.56-6.65.84v36.4h19.6q5.6,0,5.6-5.6Zm-25.2-21a119.83,119.83,0,0,1,23.8-2.8h4.9q9.52,0,15.26,5.74T257.6-54.6v32.2q0,10.5-5.95,16.45T235.2,0H183.4V-98h24.5Zm91,14.7q-5.6,0-5.6,5.6v7.7h23.8v-7.7q0-5.6-5.6-5.6ZM338.8-1.4a479.22,479.22,0,0,1-49,2.8q-9.52,0-15.26-5.74T268.8-19.6V-53.2q0-10.5,5.95-16.45T291.2-75.6h28q10.5,0,16.45,5.95T341.6-53.2v25.9H293.3v5.6a4.749,4.749,0,0,0,1.4,3.5,4.749,4.749,0,0,0,3.5,1.4q13.86,0,40.6-2.1Zm91-19.6q0,10.5-5.95,16.45T407.4,1.4H375.2q-10.5,0-16.45-5.95T352.8-21V-53.2q0-10.5,5.95-16.45T375.2-75.6h32.2q10.5,0,16.45,5.95T429.8-53.2ZM405.3-51.1q0-5.6-5.6-5.6H382.9q-5.6,0-5.6,5.6v28q0,5.6,5.6,5.6h16.8q5.6,0,5.6-5.6Z" transform="translate(264.385 152.187)" fill="#3c409a"></path><path id="Path_37" data-name="Path 37" d="M36.4-18.2A59.465,59.465,0,0,0,53.2-21v-8.4H32.9A4.749,4.749,0,0,0,29.4-28,4.749,4.749,0,0,0,28-24.5v1.4a4.749,4.749,0,0,0,1.4,3.5,4.749,4.749,0,0,0,3.5,1.4ZM10.5-72.8a429.134,429.134,0,0,1,46.2-2.8q9.52,0,15.26,5.74T77.7-54.6V0H56L54.6-7A50.083,50.083,0,0,1,41.09-.63,42.949,42.949,0,0,1,29.4,1.4H24.5q-9.52,0-15.26-5.74T3.5-19.6v-6.3q0-9.52,5.74-15.26T24.5-46.9H53.2v-5.6A4.749,4.749,0,0,0,51.8-56a4.749,4.749,0,0,0-3.5-1.4q-9.1,0-20.09.84T10.5-55.3Zm110.6,1.4V0H96.6V-52.5H86.1V-71.4Zm-24.5-28h24.5v19.6H96.6Z" transform="translate(750.385 152.187)" fill="#3c409a"></path></svg>